<?xml version="1.0" encoding="utf-8"?>
<!-- Generator: Adobe Illustrator 19.2.1, SVG Export Plug-In . SVG Version: 6.00 Build 0)  -->
<svg version="1.1" id="Lager_1" xmlns="http://www.w3.org/2000/svg" xmlns:xlink="http://www.w3.org/1999/xlink" x="0px" y="0px"
	 width="72.7px" height="72.7px" viewBox="0 0 72.7 72.7" style="enable-background:new 0 0 72.7 72.7;" xml:space="preserve">
<style type="text/css">
	.st0{fill:#554D7C;}
	.st1{fill:#FFFFFF;}
</style>
<circle class="st0" cx="36.3" cy="36.3" r="36.3"/>
<circle class="st1" cx="19" cy="26" r="4.5"/>
<circle class="st1" cx="36.4" cy="23.4" r="4.5"/>
<circle class="st1" cx="53.6" cy="26" r="4.5"/>
<path class="st1" d="M25.9,43.9c0-2.6,0-5.3,0-5.7c0-2.7-1.9-5.3-5.8-5.3c-1.9,0-0.5,0-2.3,0c-5.2,0-5.7,4.7-5.7,5.4
	c0,0.8,0,6.5,0,9.8c0,1.6,1,2.7,2,3.3C15.1,48.1,19.6,45.4,25.9,43.9z"/>
<path class="st1" d="M54.7,32.9c-1.9,0-0.4,0-2.3,0c-5.2,0-5.7,4.7-5.7,5.4c0,0.4,0,3,0,5.6c6.2,1.5,10.6,4.3,11.6,7.5
	c1.1-0.5,2.2-1.4,2.2-3.5c0-2.7,0-9,0-9.8C60.5,35.5,58.6,32.9,54.7,32.9z"/>
<path class="st1" d="M36.1,42.8c2.5,0,4.9,0.2,7.2,0.5c0-1.5,0-7,0-7.6c0-2.7-1.9-5.3-5.8-5.3c-1.9,0-0.4,0-2.3,0
	c-5.2,0-5.7,4.7-5.7,5.4c0,0.6,0,5.8,0,7.4C31.6,42.9,33.8,42.8,36.1,42.8z"/>
</svg>
