<?xml version="1.0" encoding="utf-8"?>
<!-- Generator: Adobe Illustrator 19.2.1, SVG Export Plug-In . SVG Version: 6.00 Build 0)  -->
<svg version="1.1" id="Lager_1" xmlns="http://www.w3.org/2000/svg" xmlns:xlink="http://www.w3.org/1999/xlink" x="0px" y="0px"
	 width="72.7px" height="72.7px" viewBox="0 0 72.7 72.7" style="enable-background:new 0 0 72.7 72.7;" xml:space="preserve">
<style type="text/css">
	.st0{fill:#554D7C;}
	.st1{fill:#FFFFFF;}
</style>
<circle class="st0" cx="36.3" cy="36.3" r="36.3"/>
<path class="st1" d="M44,40c2.1-2.6,3.3-5.9,3.3-9.5c0-8.5-6.9-15.4-15.4-15.4c-8.5,0-15.4,6.9-15.4,15.4c0,8.5,6.9,15.4,15.4,15.4
	c3,0,5.7-0.8,8.1-2.3l13.3,13.3l3.8-3.8L44,40z M31.8,41.1c-5.9,0-10.7-4.8-10.7-10.7c0-5.9,4.8-10.7,10.7-10.7
	c5.9,0,10.7,4.8,10.7,10.7S37.7,41.1,31.8,41.1z"/>
</svg>
