<?xml version="1.0" encoding="utf-8"?>
<!-- Generator: Adobe Illustrator 19.2.1, SVG Export Plug-In . SVG Version: 6.00 Build 0)  -->
<svg version="1.1" id="Lager_1" xmlns="http://www.w3.org/2000/svg" xmlns:xlink="http://www.w3.org/1999/xlink" x="0px" y="0px"
	 width="43.5px" height="43.5px" viewBox="0 0 43.5 43.5" style="enable-background:new 0 0 43.5 43.5;" xml:space="preserve">
<style type="text/css">
	.st0{fill:none;stroke:#554D7C;stroke-width:1.5;stroke-linecap:round;stroke-linejoin:round;stroke-miterlimit:10;}
</style>
<g>
	<circle class="st0" cx="21.8" cy="21.8" r="21"/>
</g>
<path class="st0" d="M12.3,15.9c-0.9,1.5-1.4,3.2-1.5,5c-0.3,6,4.4,11.1,10.4,11.4c6,0.3,11.1-4.4,11.4-10.4
	c0.3-6-4.4-11.1-10.4-11.4c-2.1-0.1-4,0.4-5.7,1.3"/>
<path class="st0" d="M16.6,20.1c-0.1,0.4-0.1,0.8-0.2,1.2c-0.1,2.9,2.2,5.3,5.1,5.3c2.9,0.1,5.3-2.2,5.3-5.1
	c0.1-2.9-2.2-5.3-5.1-5.3c-0.5,0-1,0.1-1.5,0.2"/>
<line class="st0" x1="11.3" y1="10.6" x2="21.8" y2="21.6"/>
<line class="st0" x1="28.7" y1="29.9" x2="32" y2="33.2"/>
<line class="st0" x1="14.4" y1="29.9" x2="11" y2="33.2"/>
<path class="st0" d="M7.6,11.5"/>
</svg>
