<?xml version="1.0" encoding="utf-8"?>
<!-- Generator: Adobe Illustrator 19.2.1, SVG Export Plug-In . SVG Version: 6.00 Build 0)  -->
<svg version="1.1" id="Lager_1" xmlns="http://www.w3.org/2000/svg" xmlns:xlink="http://www.w3.org/1999/xlink" x="0px" y="0px"
	 width="143.9px" height="160px" viewBox="0 0 143.9 160" style="enable-background:new 0 0 143.9 160;" xml:space="preserve">
<style type="text/css">
	.st0{fill:#DBDDDE;}
</style>
<g>
	<circle class="st0" cx="58.1" cy="98.4" r="8.1"/>
	<g>
		<path class="st0" d="M72,160c-43.3,0-66.9-6.9-66.9-6.9s-3.8-1-3.8-5v-13.9c0-6.1,6-5.1,6-5.1s25.2,5.8,63.9,5.8
			c35.4,0,63.3-5.9,63.3-5.9s3.3-0.1,4.6,0.8c1.3,1,2.1,2.5,2.1,4.1v14c0,4-3.8,5-3.8,5S113.7,160,72,160z"/>
	</g>
	<path class="st0" d="M132.4,47.8c-0.6-0.2-1.2-0.3-1.8-0.3C125.5,20.3,104,0,71.5,0C40.3,0,17.8,20.4,12.4,47.6
		c-0.3,0.1-0.6,0.1-0.9,0.2C5.7,49.8,0.4,56,0,68.4c0,0.5,0,4.2,0,4.7c0,12.5,5,19.5,10.6,22.1c0,5.5,0,17.3,0,20.6
		c0,4.9,3.8,5.9,3.8,5.9s18.7,5.5,57.1,5.5c30.4,0,55.6-5.4,55.6-5.4s3.8-1.8,3.8-5.3c0-3.5,0-20.6,0-20.6c0.5,0,0.9-0.1,1.4-0.3
		c6-2.1,11.5-7.8,11.5-20.9c0-0.3,0-5.9,0-6.2C143.7,55.7,138.3,49.8,132.4,47.8z M116.6,88.6v6.6c0,9.7-6.7,16.8-17.6,17.6
		c0,0-9.3,1.1-29.7,1.1c-20.5,0-28-1.1-28-1.1c-10.2-0.6-17.6-7.9-17.6-17.6v-6.6V63.3c0-9.7,7.5-17,17.6-17.6c0,0,7.6-1.1,28-1.1
		c20.4,0,29.7,1.1,29.7,1.1c10.9,0.8,17.6,7.9,17.6,17.6V88.6z"/>
	<path class="st0" d="M57.6,101.2C57.6,101.2,57.5,101.2,57.6,101.2c-15.5-0.2-29.2-5.4-36.4-8.8c-3.2-1.5-5-2.7-5.2-2.8
		c-1.5-0.9-1.9-2.8-1.1-4.3c0.9-1.5,2.8-1.9,4.3-1.1l3.2,1.8c0.1,0.1,14.7,8.6,35.3,8.9c1.7,0,3.1,1.4,3.1,3.1
		C60.7,99.8,59.3,101.2,57.6,101.2z"/>
</g>
</svg>
