<svg id="Layer_1" data-name="Layer 1" xmlns="http://www.w3.org/2000/svg" width="169.81" height="22.89" viewBox="0 0 169.81 22.89"><title>logo-white</title><g id="_Group_" data-name="&lt;Group&gt;"><path id="_Compound_Path_" data-name="&lt;Compound Path&gt;" d="M5.14,17.56V34H8.72a5.74,5.74,0,0,0,4.55-1.9,7.13,7.13,0,0,0,1.67-4.87V24.31a7.09,7.09,0,0,0-1.67-4.85,5.74,5.74,0,0,0-4.55-1.9H5.14Zm3.57-2.22a8.81,8.81,0,0,1,6.55,2.51,8.83,8.83,0,0,1,2.48,6.48v2.84a8.8,8.8,0,0,1-2.48,6.48,8.84,8.84,0,0,1-6.55,2.49H0v-1.8L2.33,34V17.56L0,17.16V15.35H8.72Z" transform="translate(0 -13.56)" fill="#fff"/><path id="_Compound_Path_2" data-name="&lt;Compound Path&gt;" d="M27.17,22.62a3,3,0,0,0-2.42,1.19,5.63,5.63,0,0,0-1.23,3l0,0.07h7.13V26.51a4.32,4.32,0,0,0-.89-2.77,3.15,3.15,0,0,0-2.63-1.11M27.6,36.45a6.52,6.52,0,0,1-5.14-2.15,8.1,8.1,0,0,1-1.91-5.58V28.1a7.92,7.92,0,0,1,2-5.5,6,6,0,0,1,4.65-2.19,5.86,5.86,0,0,1,4.72,1.89,7.48,7.48,0,0,1,1.61,5v1.76h-10l0,0.07a6.1,6.1,0,0,0,1.13,3.67,3.59,3.59,0,0,0,3,1.44,7.12,7.12,0,0,0,2.51-.41A5.78,5.78,0,0,0,32,32.72l1.1,1.83a6.76,6.76,0,0,1-2.19,1.35,8.77,8.77,0,0,1-3.28.55" transform="translate(0 -13.56)" fill="#fff"/><path id="_Path_" data-name="&lt;Path&gt;" d="M36.29,22.78V20.69H38.7V19a5.25,5.25,0,0,1,1.53-4,6,6,0,0,1,4.23-1.43,8,8,0,0,1,1.89.23q0.95,0.23,2.17.64L48,16.72a12.78,12.78,0,0,0-1.62-.51A7.22,7.22,0,0,0,44.67,16a3.32,3.32,0,0,0-2.42.74A3.14,3.14,0,0,0,41.52,19v1.67h8.82V34l2.33,0.4v1.8H45.19v-1.8l2.33-.4V22.78h-6V34l2.33,0.4v1.8H36.37v-1.8L38.7,34V22.78H36.29Z" transform="translate(0 -13.56)" fill="#fff"/><path id="_Path_2" data-name="&lt;Path&gt;" d="M65.87,25.55H63.75L63.3,23.69A3.85,3.85,0,0,0,62,22.91a5,5,0,0,0-1.77-.29,3.24,3.24,0,0,0-2.23.66,2.07,2.07,0,0,0-.73,1.59,1.77,1.77,0,0,0,.64,1.44,6.68,6.68,0,0,0,2.62.94A11.26,11.26,0,0,1,64.9,29a3.44,3.44,0,0,1,1.43,2.89,4,4,0,0,1-1.67,3.33,7,7,0,0,1-4.35,1.27A11.3,11.3,0,0,1,57.15,36a8.41,8.41,0,0,1-2.5-1.18V31.34h2.12l0.53,2.07a2.91,2.91,0,0,0,1.32.64,7.24,7.24,0,0,0,1.71.2,4,4,0,0,0,2.35-.61,1.87,1.87,0,0,0,.85-1.59,1.92,1.92,0,0,0-.71-1.53,6.67,6.67,0,0,0-2.68-1,11.28,11.28,0,0,1-4.25-1.67A3.38,3.38,0,0,1,54.45,25a4,4,0,0,1,1.61-3.21,6.35,6.35,0,0,1,4.18-1.33,10.14,10.14,0,0,1,3.16.46,6.56,6.56,0,0,1,2.33,1.27Z" transform="translate(0 -13.56)" fill="#fff"/><path id="_Compound_Path_3" data-name="&lt;Compound Path&gt;" d="M71.79,28.59a7.33,7.33,0,0,0,1,4.06,3.73,3.73,0,0,0,6.12,0,7.3,7.3,0,0,0,1-4.06V28.28a7.31,7.31,0,0,0-1-4,3.42,3.42,0,0,0-3.07-1.62,3.39,3.39,0,0,0-3.06,1.62,7.38,7.38,0,0,0-1,4v0.31ZM69,28.28a8.52,8.52,0,0,1,1.86-5.65,6.87,6.87,0,0,1,10.11,0,8.49,8.49,0,0,1,1.87,5.66v0.31a8.47,8.47,0,0,1-1.86,5.66,6.91,6.91,0,0,1-10.12,0A8.48,8.48,0,0,1,69,28.59V28.28Z" transform="translate(0 -13.56)" fill="#fff"/><polygon id="_Path_3" data-name="&lt;Path&gt;" points="107.56 4.3 107.47 4.27 99.74 22.59 98.55 22.59 90.83 4.36 90.75 4.37 90.91 13.4 90.91 21.15 93.23 21.34 93.23 22.59 86.88 22.59 86.88 21.34 89.2 21.15 89.2 3.25 86.88 3.06 86.88 1.79 89.2 1.79 91.45 1.79 99.09 20.11 99.18 20.11 106.85 1.79 111.44 1.79 111.44 3.06 109.11 3.25 109.11 21.15 111.44 21.34 111.44 22.59 105.08 22.59 105.08 21.34 107.41 21.15 107.41 13.4 107.56 4.3" fill="#fff"/><path id="_Compound_Path_4" data-name="&lt;Compound Path&gt;" d="M120.43,21.86a4.1,4.1,0,0,0-3.18,1.45A6.22,6.22,0,0,0,115.74,27l0,0.07h9.06V26.59a4.94,4.94,0,0,0-1.19-3.37,4,4,0,0,0-3.21-1.36m0.23,14.59a6.21,6.21,0,0,1-4.83-2.14,7.84,7.84,0,0,1-1.91-5.44V28.1a8.07,8.07,0,0,1,1.91-5.5,5.91,5.91,0,0,1,4.61-2.19,5.73,5.73,0,0,1,4.47,1.8,6.89,6.89,0,0,1,1.63,4.8v1.46H115.62v0.41A6.84,6.84,0,0,0,117,33.25,4.43,4.43,0,0,0,120.66,35a7.43,7.43,0,0,0,2.71-.44,5.36,5.36,0,0,0,1.93-1.27L126,34.47a6.17,6.17,0,0,1-2.2,1.45,8.46,8.46,0,0,1-3.17.54" transform="translate(0 -13.56)" fill="#fff"/><path id="_Compound_Path_5" data-name="&lt;Compound Path&gt;" d="M131.32,28.85a7.84,7.84,0,0,0,1.12,4.46A3.81,3.81,0,0,0,135.82,35a4.83,4.83,0,0,0,2.75-.74,4.92,4.92,0,0,0,1.72-2V24.86a5.33,5.33,0,0,0-1.65-2.14,4.46,4.46,0,0,0-2.79-.83,3.73,3.73,0,0,0-3.4,1.85,9.09,9.09,0,0,0-1.14,4.81v0.3Zm9,5.07a5.35,5.35,0,0,1-2,1.87,5.92,5.92,0,0,1-2.86.66,5.13,5.13,0,0,1-4.34-2.07,9,9,0,0,1-1.56-5.53v-0.3a10.1,10.1,0,0,1,1.56-5.92,5,5,0,0,1,4.37-2.22A5.31,5.31,0,0,1,140.29,23v-7.7L138,15.13V13.86h4V34.71l2.33,0.19v1.26h-3.86Z" transform="translate(0 -13.56)" fill="#fff"/><path id="_Compound_Path_6" data-name="&lt;Compound Path&gt;" d="M150.89,16.26h-1.7v-2.4h1.7v2.4Zm-4,18.64,2.33-.19V22.15L146.86,22V20.69h4v14l2.33,0.19v1.26h-6.36V34.9Z" transform="translate(0 -13.56)" fill="#fff"/><path id="_Compound_Path_7" data-name="&lt;Compound Path&gt;" d="M161.13,34.94a6.18,6.18,0,0,0,3.27-.86,5.05,5.05,0,0,0,2-2.22v-3.1H163a6.42,6.42,0,0,0-3.72,1,2.87,2.87,0,0,0-1.39,2.44,2.55,2.55,0,0,0,.86,2,3.46,3.46,0,0,0,2.38.76m5.63,1.21c-0.12-.52-0.2-1-0.24-1.36a9.11,9.11,0,0,1-.07-1.16,6.83,6.83,0,0,1-2.29,2,6.46,6.46,0,0,1-3.22.8,4.92,4.92,0,0,1-3.51-1.17,4.15,4.15,0,0,1-1.24-3.17,3.92,3.92,0,0,1,1.84-3.4,8.76,8.76,0,0,1,5-1.26h3.42v-2a3.3,3.3,0,0,0-1.07-2.6,4.35,4.35,0,0,0-3-.94,7.45,7.45,0,0,0-2.35.35,5.36,5.36,0,0,0-1.78.95l-0.14,2.07h-1.41v-3a8.9,8.9,0,0,1,2.57-1.34,9.73,9.73,0,0,1,3.18-.51,6.21,6.21,0,0,1,4.12,1.3,4.58,4.58,0,0,1,1.56,3.73V33c0,0.31,0,.62,0,0.91a7.07,7.07,0,0,0,.09.85l1.54,0.1v1.26h-3Z" transform="translate(0 -13.56)" fill="#fff"/></g></svg>