<svg id="Lager_1" xmlns="http://www.w3.org/2000/svg" viewBox="0 0 223.8 184.5"><style>.st0{fill:#554D7C;} .st1{fill:#26AFC1;} .st2{fill:#3EAFC1;} .st3{fill:#F4F5F5;} .st4{opacity:0.3;fill:none;stroke:#FFFFFF;stroke-width:2.8411;stroke-linecap:round;stroke-miterlimit:10;} .st5{opacity:0.3;fill:none;stroke:#FFFFFF;stroke-width:2.2213;stroke-linecap:round;stroke-miterlimit:10;} .st6{opacity:0.3;fill:none;stroke:#FFFFFF;stroke-width:1.7018;stroke-linecap:round;stroke-miterlimit:10;} .st7{fill:#EFF0F0;}</style><path class="st0" d="M209.7 178.4c-.2-.2-.4-.3-.6-.5-19.4-14.1-42.6-27.6-68.6-31.8H71.8c-26.4 4.2-50.2 17.1-69.7 31.4-1.8 1.3-2.1 2.6-2 3.6.1 2.2 2.8 2.3 2.8 2.3H208.8s2.3-.1 2.7-1.3c.2-1.1.2-2.3-1.8-3.7z"/><path class="st1" d="M158.4 18.2v129.2"/><path class="st0" d="M157.8 154V18c0-1.3 1-2.3 2.3-2.3 1.3 0 2.3 1.5 2.3 3.9V154M223.8 55.4s-9.5-3.3-21.8 0c-2.4.6-5.1 1.7-7.3 2.7-2.6 1.1-5 2.1-7.4 2.7-12.1 3.2-21.2-.2-21.2-.2V24s7 3 17.5.7c2.8-.6 5.9-1.6 9.2-3.2 2.8-1.3 5.7-2.3 8.4-2.9 12.3-2.9 22.6.2 22.6.2v36.6z"/><path class="st2" d="M165.9 71.7c-2.5-4.6-8.3-6.4-13-3.8l-6.3 3.4-9.8-11.5c-1.4-1.7-3.3-2.7-5.3-3.1v-.1l-.2.1c-2.8-.5-5.7.2-8 2.1-.5.4-6.3 5.7-17.1 5.7-12.6.1-19.2-6.6-19.2-6.6h-.1c-1.8-1.2-3.8-1.8-5.8-1.7H81c-2.6.1-5.1 1.3-6.9 3.5L55.7 82.1c-3.3 4.1-2.7 10.1 1.4 13.5 1.8 1.5 3.9 1.8 6 1.8 2.8 0 5.5-1.2 7.4-3.5L80.7 81l.1 50.7h-1.9c-4.3 0-7.7 3.5-7.7 7.7v7.7h32.9v-34h3.8v34h32.8v-7.7c0-4.3-3.5-7.7-7.7-7.7h-1.7V82.9l5.9 6.7c1.9 2.2 4.6 3.4 7.3 3.4 1.6 0 3.1-.4 4.6-1.2l13.1-7.1c4.5-2.5 6.2-8.3 3.7-13z"/><path class="st2" d="M80.7 41.6c3.9 10.1 13.7 17.2 25.1 17.2 11.3 0 20.9-6.9 24.9-16.8 3.1-1.3 6.8-4.3 6.8-11 0-3.3-1.2-5.8-2.9-7.5V9c1.9-.6 3.3-2.3 3.3-4.4 0-2.6-2.1-4.6-4.6-4.6-2.6 0-4.6 2.1-4.6 4.6 0 1.9 1.2 3.6 2.9 4.3v12.2c-.5-.3-.9-.5-1.4-.7C125.9 11.3 116.6 5 105.8 5c-11 0-20.4 6.6-24.6 15.9-3 1.6-6.4 4.6-6.4 10.2 0 6 3 9 5.9 10.5zm25.2-25.2c9.6 0 17.7 4.2 20.9 10v10.5c-3.1 5.8-11.3 10-20.9 10-9 0-16.8-3.7-20.3-9V25.5c3.5-5.4 11.2-9.1 20.3-9.1z"/><path class="st3" d="M90 73.8h31.7v21H90z"/><path class="st4" d="M161.3 170.6c1.1-2.1 1.5-4.5 1.1-7M159.6 158.1c-2-2.3-5-3.7-8.3-3.7-6.1 0-11.1 5-11.1 11.1s5 11.1 11.1 11.1c1.9 0 3.8-.5 5.3-1.4M86 166.5c-1-2.9-2.9-5.5-5.7-7.4M72.5 156.9c-4-.1-8.1 1.5-11.1 4.7-5.5 5.9-5.2 15.2.7 20.7s15.2 5.2 20.7-.7c1.7-1.9 2.9-4.1 3.5-6.4"/><path class="st5" d="M120.3 156.9c-1.7-.6-3.6-.7-5.5-.2M110.7 159.4c-1.6 1.8-2.4 4.2-2.1 6.8.6 4.8 5 8.1 9.7 7.5 4.8-.6 8.1-5 7.5-9.7-.2-1.5-.8-2.9-1.6-4M186.8 171.1c-1.7-.6-3.6-.7-5.5-.2M177.3 173.6c-1.6 1.8-2.4 4.2-2.1 6.8.6 4.8 5 8.1 9.7 7.5 4.8-.6 8.1-5 7.5-9.7-.2-1.5-.8-2.9-1.6-4"/><path class="st6" d="M36.6 160.8c-1.3-.5-2.8-.6-4.2-.1M29.3 162.8c-1.2 1.4-1.8 3.3-1.6 5.2.5 3.6 3.8 6.2 7.4 5.7 3.6-.5 6.2-3.8 5.7-7.4-.1-1.2-.6-2.2-1.2-3.1"/><g><path class="st7" d="M194.6 49V34.1l-3.5 2.7-2.3-3.1 6.1-4.5h4V49h-4.3z"/></g><path class="st3" d="M67.3 140.2h38.1v1.7H67.3zM73.1 97.2L52.5 80.4l1.1-1.3 20.6 16.7zM147.8 62.5l13.5 22.8 1.5-.8-13.5-22.9zM107.3 140.2h38.1v1.7h-38.1z"/></svg>
