<?xml version="1.0" encoding="utf-8"?>
<!-- Generator: Adobe Illustrator 19.2.1, SVG Export Plug-In . SVG Version: 6.00 Build 0)  -->
<svg version="1.1" id="Lager_1" xmlns="http://www.w3.org/2000/svg" xmlns:xlink="http://www.w3.org/1999/xlink" x="0px" y="0px"
	 width="223.8px" height="184.5px" viewBox="0 0 223.8 184.5" style="enable-background:new 0 0 223.8 184.5;" xml:space="preserve"
	>
<style type="text/css">
	.st0{fill:#554D7C;}
	.st1{fill:#26AFC1;}
	.st2{fill:#3EAFC1;}
	.st3{fill:#F4F5F5;}
	.st4{opacity:0.3;fill:none;stroke:#FFFFFF;stroke-width:2.8411;stroke-linecap:round;stroke-miterlimit:10;}
	.st5{opacity:0.3;fill:none;stroke:#FFFFFF;stroke-width:2.2213;stroke-linecap:round;stroke-miterlimit:10;}
	.st6{opacity:0.3;fill:none;stroke:#FFFFFF;stroke-width:1.7018;stroke-linecap:round;stroke-miterlimit:10;}
	.st7{fill:#EFF0F0;}
</style>
<g>
	<path class="st0" d="M209.7,178.4c-0.2-0.2-0.4-0.3-0.6-0.5c-19.4-14.1-42.6-27.6-68.6-31.8c0,0-7.7,0-18.2,0
		c-10.4,0-22.6,0-32.3,0c-10.5,0-18.2,0-18.2,0c-26.4,4.2-50.2,17.1-69.7,31.4c-1.8,1.3-2.1,2.6-2,3.6c0.1,2.2,2.8,2.3,2.8,2.3h87.1
		h32.3h86.5c0,0,2.3-0.1,2.7-1.3C211.7,181,211.7,179.8,209.7,178.4z"/>
	<g>
		<g>
			<line class="st1" x1="158.4" y1="18.2" x2="158.4" y2="147.4"/>
			<path class="st0" d="M157.8,154V18c0-1.3,1-2.3,2.3-2.3c1.3,0,2.3,1.5,2.3,3.9V154"/>
		</g>
		<path class="st0" d="M223.8,55.4c0,0-9.5-3.3-21.8,0c-2.4,0.6-5.1,1.7-7.3,2.7c-2.6,1.1-5,2.1-7.4,2.7
			c-12.1,3.2-21.2-0.2-21.2-0.2V24c0,0,7,3,17.5,0.7c2.8-0.6,5.9-1.6,9.2-3.2c2.8-1.3,5.7-2.3,8.4-2.9c12.3-2.9,22.6,0.2,22.6,0.2
			V55.4z"/>
		<path class="st2" d="M165.9,71.7c-2.5-4.6-8.3-6.4-13-3.8l-6.3,3.4l-9.8-11.5c-1.4-1.7-3.3-2.7-5.3-3.1v-0.1l-0.2,0.1
			c-2.8-0.5-5.7,0.2-8,2.1c-0.5,0.4-6.3,5.7-17.1,5.7C93.6,64.6,87,57.9,87,57.9l-0.1,0c-1.8-1.2-3.8-1.8-5.8-1.7l-0.1,0v0
			c-2.6,0.1-5.1,1.3-6.9,3.5L55.7,82.1c-3.3,4.1-2.7,10.1,1.4,13.5c1.8,1.5,3.9,1.8,6,1.8c2.8,0,5.5-1.2,7.4-3.5L80.7,81l0.1,50.7
			h-1.9c-4.3,0-7.7,3.5-7.7,7.7c0,2.2,0,7.7,0,7.7l32.9,0l0-34h3.8l0,34h32.8c0,0,0-5.6,0-7.7c0-4.3-3.5-7.7-7.7-7.7h-1.7l0-48.8
			l5.9,6.7c1.9,2.2,4.6,3.4,7.3,3.4c1.6,0,3.1-0.4,4.6-1.2l13.1-7.1C166.7,82.2,168.4,76.4,165.9,71.7z"/>
		<path class="st2" d="M80.7,41.6c3.9,10.1,13.7,17.2,25.1,17.2c11.3,0,20.9-6.9,24.9-16.8c3.1-1.3,6.8-4.3,6.8-11
			c0-3.3-1.2-5.8-2.9-7.5V9c1.9-0.6,3.3-2.3,3.3-4.4c0-2.6-2.1-4.6-4.6-4.6c-2.6,0-4.6,2.1-4.6,4.6c0,1.9,1.2,3.6,2.9,4.3v12.2
			c-0.5-0.3-0.9-0.5-1.4-0.7C125.9,11.3,116.6,5,105.8,5c-11,0-20.4,6.6-24.6,15.9c-3,1.6-6.4,4.6-6.4,10.2
			C74.8,37.1,77.8,40.1,80.7,41.6z M105.9,16.4c9.6,0,17.7,4.2,20.9,10v10.5c-3.1,5.8-11.3,10-20.9,10c-9,0-16.8-3.7-20.3-9V25.5
			C89.1,20.1,96.8,16.4,105.9,16.4z"/>
		<rect x="90" y="73.8" class="st3" width="31.7" height="21"/>
	</g>
	<path class="st4" d="M161.3,170.6c1.1-2.1,1.5-4.5,1.1-7"/>
	<path class="st4" d="M159.6,158.1c-2-2.3-5-3.7-8.3-3.7c-6.1,0-11.1,5-11.1,11.1c0,6.1,5,11.1,11.1,11.1c1.9,0,3.8-0.5,5.3-1.4"/>
	<path class="st4" d="M86,166.5c-1-2.9-2.9-5.5-5.7-7.4"/>
	<path class="st4" d="M72.5,156.9c-4-0.1-8.1,1.5-11.1,4.7c-5.5,5.9-5.2,15.2,0.7,20.7c5.9,5.5,15.2,5.2,20.7-0.7
		c1.7-1.9,2.9-4.1,3.5-6.4"/>
	<path class="st5" d="M120.3,156.9c-1.7-0.6-3.6-0.7-5.5-0.2"/>
	<path class="st5" d="M110.7,159.4c-1.6,1.8-2.4,4.2-2.1,6.8c0.6,4.8,5,8.1,9.7,7.5c4.8-0.6,8.1-5,7.5-9.7c-0.2-1.5-0.8-2.9-1.6-4"
		/>
	<path class="st5" d="M186.8,171.1c-1.7-0.6-3.6-0.7-5.5-0.2"/>
	<path class="st5" d="M177.3,173.6c-1.6,1.8-2.4,4.2-2.1,6.8c0.6,4.8,5,8.1,9.7,7.5c4.8-0.6,8.1-5,7.5-9.7c-0.2-1.5-0.8-2.9-1.6-4"
		/>
	<path class="st6" d="M36.6,160.8c-1.3-0.5-2.8-0.6-4.2-0.1"/>
	<path class="st6" d="M29.3,162.8c-1.2,1.4-1.8,3.3-1.6,5.2c0.5,3.6,3.8,6.2,7.4,5.7c3.6-0.5,6.2-3.8,5.7-7.4
		c-0.1-1.2-0.6-2.2-1.2-3.1"/>
	<g>
		<path class="st7" d="M194.6,49V34.1l-3.5,2.7l-2.3-3.1l6.1-4.5h4V49H194.6z"/>
	</g>
	<rect x="67.3" y="140.2" class="st3" width="38.1" height="1.7"/>
	<polygon class="st3" points="73.1,97.2 52.5,80.4 53.6,79.1 74.2,95.8 	"/>
	<polygon class="st3" points="147.8,62.5 161.3,85.3 162.8,84.5 149.3,61.6 	"/>
	<rect x="107.3" y="140.2" class="st3" width="38.1" height="1.7"/>
</g>
</svg>
