<?xml version="1.0" encoding="utf-8"?>
<!-- Generator: Adobe Illustrator 19.2.1, SVG Export Plug-In . SVG Version: 6.00 Build 0)  -->
<svg version="1.1" id="Lager_1" xmlns="http://www.w3.org/2000/svg" xmlns:xlink="http://www.w3.org/1999/xlink" x="0px" y="0px"
	 width="186.1px" height="150.9px" viewBox="0 0 186.1 150.9" style="enable-background:new 0 0 186.1 150.9;" xml:space="preserve"
	>
<style type="text/css">
	.st0{fill:#554D7C;}
	.st1{fill:#E7E8E9;}
	.st2{fill:#3EAFC1;}
	.st3{fill:#F4F5F5;}
</style>
<g>
	<path class="st0" d="M65.3,97c-5.8-8.4-13.5-13.3-13.5-13.3c5.5-31.3,19.5-50.3,34.1-62.5c19.6-16.4,44.6-20.7,62-21.2
		c23.1-0.7,38.3,4.3,38.3,4.3l-0.1,2c-0.5,5.2-1,19.3-6.6,37c-5.2,16.6-15.8,38.6-36.8,52.9c-15.7,10.7-37.7,19-69.4,15.7
		c0,0-1-3.6-3.6-8.3C67.8,100.5,65.3,97,65.3,97z"/>
	<path class="st1" d="M94.3,73.7c-6.6-8.5-5-20.8,3.6-27.4s20.8-5,27.4,3.6c6.6,8.5,5,20.8-3.6,27.4
		C113.2,83.9,100.9,82.3,94.3,73.7z M120.7,53.5c-4.6-6-13.2-7.1-19.2-2.5c-6,4.6-7.1,13.2-2.5,19.2c4.6,6,13.2,7.1,19.2,2.5
		C124.1,68,125.3,59.4,120.7,53.5z"/>
	<path class="st0" d="M65.1,34.8c0,0-15.5-0.7-30.5,12c-12,10.1-18.1,24.5-21.1,33.6c-1.3,3.9-0.3,6.3,3,3.8c3.9-3,9.6-6.3,14-8
		c10-3.7,17.6-0.7,17.6-0.7s1.6-9.8,5.6-20.3C58,44.1,65.1,34.8,65.1,34.8z"/>
	<path class="st0" d="M125.7,110.7c0,0-2.8,15.2-18.4,27.1c-12.5,9.5-27.9,12.2-37.4,13.1c-4.1,0.4-6.2-1.1-3-3.8
		c3.8-3.2,8.3-7.9,10.9-11.9c5.8-9,4.6-17,4.6-17s9.9,0.6,21-1C115.1,115.5,125.7,110.7,125.7,110.7z"/>
	<path class="st0" d="M67.9,112.6c-6.2-12.8-14.3-20.4-17.8-23.3l-5.8,4.5l-0.4,0.6c0.1,0.1,10.7,7.6,17.7,23.1L67.9,112.6z"/>
	<g>
		<path class="st2" d="M52.9,119.2c-4.3,3.4-13.9,9.3-24,6.4l-1.8-0.6c-1.2-11.9,7.9-20.3,12.5-23.7c-7.8-1-18.3,3.4-25.6,10.1
			C-1.5,125.5,0,146.3,0,146.3s21.2,6.8,38.1-5.6C46.1,134.9,52.1,126.3,52.9,119.2z"/>
	</g>
	<path class="st3" d="M139.7,38.7c7.2,9.5,13.1,17.7,19.2,27.7c14.7-24.3,17.8-54.6,17.8-54.6s-27-6-58,1.8
		C126.4,21.8,132.8,29.5,139.7,38.7z"/>
</g>
</svg>
