<?xml version="1.0" encoding="utf-8"?>
<!-- Generator: Adobe Illustrator 19.2.1, SVG Export Plug-In . SVG Version: 6.00 Build 0)  -->
<svg version="1.1" id="Lager_1" xmlns="http://www.w3.org/2000/svg" xmlns:xlink="http://www.w3.org/1999/xlink" x="0px" y="0px"
	 width="271.3px" height="220px" viewBox="0 0 271.3 220" style="enable-background:new 0 0 271.3 220;" xml:space="preserve">
<style type="text/css">
	.st0{fill:#554D7C;}
	.st1{fill:#E7E8E9;}
	.st2{fill:#3EAFC1;}
	.st3{fill:#F4F5F5;}
</style>
<g>
	<path class="st0" d="M95.2,141.4C86.7,129.2,75.5,122,75.5,122c8-45.6,28.4-73.3,49.7-91c28.6-23.9,65-30.2,90.3-30.9
		c33.6-1,55.8,6.3,55.8,6.3l-0.1,2.9c-0.7,7.6-1.5,28.1-9.6,53.9c-7.6,24.2-23,56.2-53.6,77.1c-22.9,15.6-54.9,27.7-101.1,22.9
		c0,0-1.5-5.2-5.2-12.1C98.8,146.5,95.2,141.4,95.2,141.4z"/>
	<path class="st1" d="M137.4,107.5c-9.6-12.4-7.3-30.3,5.2-39.9c12.5-9.6,30.3-7.3,39.9,5.2c9.6,12.4,7.3,30.3-5.2,39.9
		C165,122.3,147,120,137.4,107.5z M175.9,78c-6.7-8.7-19.2-10.3-28-3.6s-10.3,19.2-3.6,28s19.2,10.3,28,3.6
		C180.8,99.2,182.6,86.6,175.9,78z"/>
	<path class="st0" d="M94.9,50.8c0,0-22.6-1-44.4,17.5C33,83,24.1,104,19.7,117.2c-1.9,5.7-0.4,9.2,4.4,5.5
		c5.7-4.4,14-9.2,20.4-11.7c14.6-5.4,25.6-1,25.6-1s2.3-14.3,8.2-29.6C84.5,64.3,94.9,50.8,94.9,50.8z"/>
	<path class="st0" d="M183.2,161.3c0,0-4.1,22.1-26.8,39.5c-18.2,13.8-40.6,17.8-54.5,19.1c-6,0.6-9-1.6-4.4-5.5
		c5.5-4.7,12.1-11.5,15.9-17.3c8.4-13.1,6.7-24.8,6.7-24.8s14.4,0.9,30.6-1.5C167.7,168.3,183.2,161.3,183.2,161.3z"/>
	<path class="st0" d="M99,164.1c-9-18.6-20.8-29.7-25.9-33.9l-8.4,6.6l-0.6,0.9c0.1,0.1,15.6,11.1,25.8,33.6L99,164.1z"/>
	<g>
		<path class="st2" d="M77.1,173.7c-6.3,5-20.2,13.5-35,9.3l-2.6-0.9c-1.7-17.3,11.5-29.6,18.2-34.5c-11.4-1.5-26.7,5-37.3,14.7
			c-22.6,20.5-20.4,50.8-20.4,50.8s30.9,9.9,55.5-8.2C67.2,196.6,75.9,184.1,77.1,173.7z"/>
	</g>
	<path class="st3" d="M203.6,56.5c10.5,13.8,19.1,25.8,28,40.3c21.4-35.4,25.9-79.5,25.9-79.5s-39.3-8.7-84.5,2.6
		C184.2,31.9,193.5,43.1,203.6,56.5z"/>
</g>
</svg>
