<svg id="Lager_1" xmlns="http://www.w3.org/2000/svg" viewBox="0 0 271.3 220"><style>.st0{fill:#554D7C;} .st1{fill:#E7E8E9;} .st2{fill:#3EAFC1;} .st3{fill:#F4F5F5;}</style><path class="st0" d="M95.2 141.4C86.7 129.2 75.5 122 75.5 122c8-45.6 28.4-73.3 49.7-91C153.8 7.1 190.2.8 215.5.1c33.6-1 55.8 6.3 55.8 6.3l-.1 2.9c-.7 7.6-1.5 28.1-9.6 53.9-7.6 24.2-23 56.2-53.6 77.1-22.9 15.6-54.9 27.7-101.1 22.9 0 0-1.5-5.2-5.2-12.1-2.9-4.6-6.5-9.7-6.5-9.7z"/><path class="st1" d="M137.4 107.5c-9.6-12.4-7.3-30.3 5.2-39.9 12.5-9.6 30.3-7.3 39.9 5.2 9.6 12.4 7.3 30.3-5.2 39.9-12.3 9.6-30.3 7.3-39.9-5.2zM175.9 78c-6.7-8.7-19.2-10.3-28-3.6s-10.3 19.2-3.6 28 19.2 10.3 28 3.6c8.5-6.8 10.3-19.4 3.6-28z"/><path class="st0" d="M94.9 50.8s-22.6-1-44.4 17.5C33 83 24.1 104 19.7 117.2c-1.9 5.7-.4 9.2 4.4 5.5 5.7-4.4 14-9.2 20.4-11.7 14.6-5.4 25.6-1 25.6-1s2.3-14.3 8.2-29.6c6.2-16.1 16.6-29.6 16.6-29.6zM183.2 161.3s-4.1 22.1-26.8 39.5c-18.2 13.8-40.6 17.8-54.5 19.1-6 .6-9-1.6-4.4-5.5 5.5-4.7 12.1-11.5 15.9-17.3 8.4-13.1 6.7-24.8 6.7-24.8s14.4.9 30.6-1.5c17-2.5 32.5-9.5 32.5-9.5zM99 164.1c-9-18.6-20.8-29.7-25.9-33.9l-8.4 6.6-.6.9c.1.1 15.6 11.1 25.8 33.6l9.1-7.2z"/><path class="st2" d="M77.1 173.7c-6.3 5-20.2 13.5-35 9.3l-2.6-.9c-1.7-17.3 11.5-29.6 18.2-34.5-11.4-1.5-26.7 5-37.3 14.7C-2.2 182.8 0 213.1 0 213.1s30.9 9.9 55.5-8.2c11.7-8.3 20.4-20.8 21.6-31.2z"/><path class="st3" d="M203.6 56.5c10.5 13.8 19.1 25.8 28 40.3 21.4-35.4 25.9-79.5 25.9-79.5s-39.3-8.7-84.5 2.6c11.2 12 20.5 23.2 30.6 36.6z"/></svg>
