<svg id="Lager_1" xmlns="http://www.w3.org/2000/svg" viewBox="0 0 157.8 159.1"><style>.st0{fill:#554D7C;} .st1{fill:#E7E8E9;} .st2{fill:#3EAFC1;}</style><path class="st0" d="M26.5 87c.6 1.2.1 2.7-1.2 3.3L13 96.1c-1.2.6-2.7.1-3.3-1.2l-9.5-20c-.6-1.2-.1-2.7 1.2-3.3l12.3-5.8c1.2-.6 2.7-.1 3.3 1.2l9.5 20zM87.8 93.1V79.9c0-3.1-2.5-5.6-5.6-5.6-3.1 0-5.6 2.5-5.6 5.6v13.2h11.2zM87.1 159.1l.7-45.7c0-3.1-2.5-5.6-5.6-5.6-3.1 0-5.6 2.5-5.6 5.6l1.6 45.7h8.9z"/><path class="st0" d="M71.7 92.9H92v10.8H71.7zM15.976 71.476l27.69-12.785 6.206 13.437-27.69 12.786zM45.105 50.85l55.987-25.932 12.735 27.495L57.84 78.345z"/><path class="st2" d="M104.587 15.93l34.5-15.925 18.734 40.583-34.5 15.926z"/><path class="st0" d="M74.6 93.6c-3.3-1.5-7.1 0-8.6 3.2L40.4 159h9.8l24.5-56.9c3.6-3.2 3.1-7.1-.1-8.5zM89.3 93.6c3.3-1.5 7.1 0 8.6 3.2l25.9 62.2h-10.2l-24.5-56.9c-3.6-3.2-3.1-7.1.2-8.5z"/></svg>
