<?xml version="1.0" encoding="utf-8"?>
<!-- Generator: Adobe Illustrator 19.2.1, SVG Export Plug-In . SVG Version: 6.00 Build 0)  -->
<svg version="1.1" id="Lager_1" xmlns="http://www.w3.org/2000/svg" xmlns:xlink="http://www.w3.org/1999/xlink" x="0px" y="0px"
	 width="157.8px" height="159.1px" viewBox="0 0 157.8 159.1" style="enable-background:new 0 0 157.8 159.1;" xml:space="preserve"
	>
<style type="text/css">
	.st0{fill:#554D7C;}
	.st1{fill:#E7E8E9;}
	.st2{fill:#3EAFC1;}
</style>
<g>
	<path class="st0" d="M26.5,87c0.6,1.2,0.1,2.7-1.2,3.3l-12.3,5.8c-1.2,0.6-2.7,0.1-3.3-1.2L0.2,74.9c-0.6-1.2-0.1-2.7,1.2-3.3
		l12.3-5.8c1.2-0.6,2.7-0.1,3.3,1.2L26.5,87z"/>
	<g>
		<path class="st0" d="M87.8,93.1V79.9c0-3.1-2.5-5.6-5.6-5.6c-3.1,0-5.6,2.5-5.6,5.6v13.2H87.8z"/>
	</g>
	<g>
		<path class="st0" d="M87.1,159.1l0.7-45.7c0-3.1-2.5-5.6-5.6-5.6c-3.1,0-5.6,2.5-5.6,5.6l1.6,45.7H87.1z"/>
	</g>
	<rect x="71.7" y="92.9" class="st0" width="20.3" height="10.8"/>
	<path class="st1" d="M48.9,146.6"/>
	
		<rect x="17.7" y="64.4" transform="matrix(0.9079 -0.4192 0.4192 0.9079 -27.0899 20.4272)" class="st0" width="30.5" height="14.8"/>
	
		<rect x="48.6" y="36.5" transform="matrix(0.9074 -0.4203 0.4203 0.9074 -14.3351 38.1574)" class="st0" width="61.7" height="30.3"/>
	<rect x="112.2" y="5.9" transform="matrix(0.9079 -0.4191 0.4191 0.9079 0.2484 57.5971)" class="st2" width="38" height="44.7"/>
	<path class="st0" d="M74.6,93.6c-3.3-1.5-7.1,0-8.6,3.2L40.4,159h9.8l24.5-56.9C78.3,98.9,77.8,95,74.6,93.6z"/>
	<path class="st0" d="M89.3,93.6c3.3-1.5,7.1,0,8.6,3.2l25.9,62.2h-10.2l-24.5-56.9C85.5,98.9,86,95,89.3,93.6z"/>
</g>
</svg>
